HIERARCHY
ROOT Hips
{
  OFFSET 0.000000 0.000000 0.000000
  CHANNELS 6 Xposition Yposition Zposition Zrotation Yrotation Xrotation
  JOINT Spine
  {
    OFFSET 0.064805 2.024372 -0.084724
    CHANNELS 3 Zrotation Yrotation Xrotation
    JOINT Spine1
    {
      OFFSET 0.000151 1.967109 0.180687
      CHANNELS 3 Zrotation Yrotation Xrotation
      JOINT Spine2
      {
        OFFSET -0.032903 1.990722 0.223417
        CHANNELS 3 Zrotation Yrotation Xrotation
        JOINT Neck
        {
          OFFSET -0.299607 1.682932 -0.130414
          CHANNELS 3 Zrotation Yrotation Xrotation
          JOINT Head
          {
            OFFSET 0.229728 1.749061 -0.101477
            CHANNELS 3 Zrotation Yrotation Xrotation
            End Site
            {
              OFFSET 0 0 0
            }
          }
        }
        JOINT LeftShoulder
        {
          OFFSET 3.379679 1.028929 0.311469
          CHANNELS 3 Zrotation Yrotation Xrotation
          JOINT LeftArm
          {
            OFFSET 5.198070 -0.000000 -0.000000
            CHANNELS 3 Zrotation Yrotation Xrotation
            JOINT LeftForeArm
            {
              OFFSET 3.093700 -0.000000 -0.000000
              CHANNELS 3 Zrotation Yrotation Xrotation
              JOINT LeftHand
              {
                OFFSET 0.672632 -0.000000 -0.000000
                CHANNELS 3 Zrotation Yrotation Xrotation
                JOINT LeftHandIndex1
                {
                  OFFSET 0.542293 -0.000000 -0.000000
                  CHANNELS 3 Zrotation Yrotation Xrotation
                  End Site
                  {
                    OFFSET 0 0 0
                  }
                }
              }
            }
          }
        }
        JOINT RightShoulder
        {
          OFFSET -3.382536 0.963552 -0.161199
          CHANNELS 3 Zrotation Yrotation Xrotation
          JOINT RightArm
          {
            OFFSET -5.452220 -0.000000 -0.000000
            CHANNELS 3 Zrotation Yrotation Xrotation
            JOINT RightForeArm
            {
              OFFSET -3.012840 -0.000000 -0.000000
              CHANNELS 3 Zrotation Yrotation Xrotation
              JOINT RightHand
              {
                OFFSET -0.622296 -0.000000 -0.000000
                CHANNELS 3 Zrotation Yrotation Xrotation
                JOINT RightHandIndex1
                {
                  OFFSET -0.501711 -0.000000 -0.000000
                  CHANNELS 3 Zrotation Yrotation Xrotation
                  End Site
                  {
                    OFFSET 0 0 0
                  }
                }
              }
            }
          }
        }
      }
    }
  }
  JOINT LeftUpLeg
  {
    OFFSET 2.290470 -6.293021 0.000000
    CHANNELS 3 Zrotation Yrotation Xrotation
    JOINT LeftLeg
    {
      OFFSET 2.522651 -6.930931 0.000000
      CHANNELS 3 Zrotation Yrotation Xrotation
      JOINT LeftFoot
      {
        OFFSET 0.176329 -0.484458 2.026562
        CHANNELS 3 Zrotation Yrotation Xrotation
        JOINT LeftToeBase
        {
          OFFSET 0.000000 -0.000000 1.049890
          CHANNELS 3 Zrotation Yrotation Xrotation
          End Site
          {
            OFFSET 0 0 0
          }
        }
      }
    }
  }
  JOINT RightUpLeg
  {
    OFFSET -2.272802 -6.244476 0.000000
    CHANNELS 3 Zrotation Yrotation Xrotation
    JOINT RightLeg
    {
      OFFSET -2.508340 -6.891614 0.000000
      CHANNELS 3 Zrotation Yrotation Xrotation
      JOINT RightFoot
      {
        OFFSET -0.269668 -0.740904 2.087406
        CHANNELS 3 Zrotation Yrotation Xrotation
        JOINT RightToeBase
        {
          OFFSET -0.000000 -0.000000 1.106140
          CHANNELS 3 Zrotation Yrotation Xrotation
          End Site
          {
            OFFSET 0 0 0
          }
        }
      }
    }
  }
}
MOTION
Frames: 5
Frame Time: 0.00833333
1.213910 14.248900 33.489500 -363.144000 -13.335700 368.118000 12.291300 -31.471800 -19.605100 0.000000 0.000000 44.711100 -21.860700 0.000000 -21.076100 0.000000 0.000000 -43.513000 15.134200 -19.628600 -35.345000 0.000000 0.000000 60.566600 -2.024550 0.000000 -25.775700 0.000000 0.000000 -28.417500 -2.915250 2.510780 4.158950 -1.616080 3.058050 -3.831230 -0.349262 1.599190 -6.388260 -22.441900 -22.503600 44.809900 24.846400 -23.277900 -0.976174 -0.000000 0.000000 0.000000 80.604000 -1.704910 -81.245500 0.000000 0.000000 111.647000 -26.085900 0.000000 -17.435000 0.000000 0.000000 7.125020 -0.000000 0.000000 0.000000 -53.423800 -71.081700 27.982600 0.000000 0.000000 27.778400 -12.124600 0.000000 -29.895500 0.000000 0.000000 7.125020
1.191990 14.254200 33.484000 -362.831000 -13.533500 368.002000 11.915400 -31.345700 -19.273600 0.000000 0.000000 44.347600 -21.973100 0.000000 -20.878300 0.000000 0.000000 -43.574800 14.881800 -19.513200 -35.377400 0.000000 0.000000 60.653200 -2.039260 0.000000 -25.832200 0.000000 0.000000 -28.381000 -3.138070 2.584890 4.200390 -1.690080 3.135840 -3.799380 -0.311315 1.645270 -6.389150 -22.599200 -22.328900 44.732100 24.919200 -23.198500 -0.960852 0.000000 -0.000000 0.000000 80.861400 -1.893930 -80.974600 0.000000 0.000000 111.465000 -26.143700 0.000000 -17.377400 0.000000 0.000000 7.125020 0.000000 -0.000000 0.000000 -52.503800 -70.716600 26.967900 0.000000 0.000000 28.038900 -12.225200 0.000000 -30.016900 0.000000 0.000000 7.125020
1.173830 14.257800 33.478400 -362.573000 -13.745900 367.943000 11.628400 -31.238900 -19.026500 0.000000 0.000000 44.042100 -22.090500 0.000000 -20.729900 0.000000 0.000000 -43.610500 14.696300 -19.369100 -35.484400 0.000000 0.000000 60.751000 -2.058260 0.000000 -25.871300 0.000000 0.000000 -28.342500 -3.288200 2.644770 4.206980 -1.750490 3.201420 -3.791970 -0.297577 1.682650 -6.392340 -22.790800 -22.125300 44.671400 25.002500 -23.112900 -0.939123 -0.000000 0.000000 0.000000 81.131100 -2.091750 -80.706300 0.000000 0.000000 111.290000 -26.224800 0.000000 -17.341800 0.000000 0.000000 7.125020 -0.000000 0.000000 0.000000 -52.263700 -70.511400 26.647700 0.000000 0.000000 28.212500 -12.312200 0.000000 -30.098200 0.000000 0.000000 7.125020
1.159680 14.259800 33.473600 -362.370000 -13.961400 367.934000 11.419200 -31.169300 -18.857900 0.000000 0.000000 43.798600 -22.200600 0.000000 -20.630900 0.000000 0.000000 -43.629600 14.565900 -19.226500 -35.644300 0.000000 0.000000 60.855000 -2.065180 0.000000 -25.903700 0.000000 0.000000 -28.309900 -3.365640 2.680540 4.174510 -1.797940 3.242400 -3.791290 -0.306397 1.704990 -6.375980 -22.996200 -21.909500 44.574600 25.079100 -23.021300 -0.905258 0.000000 -0.000000 0.000000 81.401100 -2.276370 -80.412200 0.000000 0.000000 111.120000 -26.327700 0.000000 -17.319700 0.000000 0.000000 7.125020 0.000000 -0.000000 0.000000 -52.076100 -70.180100 26.412900 0.000000 0.000000 28.328800 -12.446300 0.000000 -30.190800 0.000000 0.000000 7.125020
1.149280 14.259900 33.469600 -362.221000 -14.182400 367.971000 11.285200 -31.121600 -18.760100 0.000000 0.000000 43.615800 -22.313300 0.000000 -20.583400 0.000000 0.000000 -43.651500 14.490300 -19.080900 -35.854300 0.000000 0.000000 60.964600 -2.060920 0.000000 -25.929400 0.000000 0.000000 -28.279600 -3.371250 2.699040 4.105860 -1.834150 3.267380 -3.808000 -0.340408 1.716700 -6.353020 -23.223700 -21.673600 44.492400 25.171700 -22.927900 -0.865980 0.000000 0.000000 0.000000 81.671500 -2.458840 -80.117300 0.000000 0.000000 110.962000 -26.421300 0.000000 -17.313300 0.000000 0.000000 7.125020 0.000000 0.000000 0.000000 -52.118900 -69.841600 26.424900 0.000000 0.000000 28.397400 -12.564100 0.000000 -30.287300 0.000000 0.000000 7.125020
